<svg xmlns="http://www.w3.org/2000/svg" xmlns:xlink="http://www.w3.org/1999/xlink" width="500" zoomAndPan="magnify" viewBox="0 0 375 374.999991" height="500" preserveAspectRatio="xMidYMid meet" version="1.0"><defs><clipPath id="15a96ff48f"><path d="M 124.125 152 L 164 152 L 164 175 L 124.125 175 Z M 124.125 152 " clip-rule="nonzero"/></clipPath><clipPath id="dfc685a9d4"><path d="M 151 122.832031 L 212 122.832031 L 212 173 L 151 173 Z M 151 122.832031 " clip-rule="nonzero"/></clipPath><clipPath id="f9cc8d044b"><path d="M 124.125 161 L 244 161 L 244 251.832031 L 124.125 251.832031 Z M 124.125 161 " clip-rule="nonzero"/></clipPath><clipPath id="79986ae8f5"><path d="M 197 195 L 250.875 195 L 250.875 224 L 197 224 Z M 197 195 " clip-rule="nonzero"/></clipPath></defs><g clip-path="url(#15a96ff48f)"><path fill="#00a8a8" d="M 159.203125 170.15625 L 135.191406 170.15625 C 134.777344 170.15625 134.371094 170.117188 133.96875 170.035156 C 133.5625 169.957031 133.171875 169.835938 132.792969 169.679688 C 132.410156 169.523438 132.050781 169.328125 131.707031 169.101562 C 131.367188 168.871094 131.050781 168.613281 130.757812 168.320312 C 130.46875 168.03125 130.207031 167.714844 129.980469 167.371094 C 129.75 167.027344 129.558594 166.667969 129.398438 166.289062 C 129.242188 165.90625 129.125 165.515625 129.042969 165.113281 C 128.964844 164.707031 128.921875 164.300781 128.921875 163.890625 C 128.921875 163.476562 128.964844 163.070312 129.042969 162.667969 C 129.125 162.261719 129.242188 161.871094 129.398438 161.492188 C 129.558594 161.109375 129.75 160.75 129.980469 160.40625 C 130.207031 160.066406 130.46875 159.75 130.757812 159.457031 C 131.050781 159.167969 131.367188 158.90625 131.707031 158.679688 C 132.050781 158.449219 132.410156 158.257812 132.792969 158.101562 C 133.171875 157.941406 133.5625 157.824219 133.96875 157.742188 C 134.371094 157.664062 134.777344 157.621094 135.191406 157.621094 L 153.785156 157.621094 C 153.542969 156.109375 153.425781 154.589844 153.429688 153.058594 C 153.429688 152.980469 153.429688 152.902344 153.429688 152.824219 L 135.191406 152.824219 C 129.089844 152.824219 124.125 157.789062 124.125 163.890625 C 124.125 169.992188 129.089844 174.953125 135.191406 174.953125 L 163.914062 174.953125 C 162.152344 173.542969 160.582031 171.945312 159.203125 170.15625 Z M 159.203125 170.15625 " fill-opacity="1" fill-rule="nonzero"/></g><path fill="#00a8a8" d="M 226.449219 157.464844 C 224.964844 155.972656 223.253906 154.828125 221.3125 154.023438 C 219.367188 153.21875 217.347656 152.816406 215.242188 152.824219 L 209.191406 152.824219 C 209.191406 152.972656 209.191406 153.125 209.191406 153.273438 C 209.1875 154.730469 209.070312 156.183594 208.835938 157.621094 L 215.242188 157.621094 C 221.332031 157.621094 226.289062 162.578125 226.289062 168.667969 L 226.289062 170.15625 L 203.421875 170.15625 C 202.042969 171.945312 200.472656 173.542969 198.710938 174.953125 L 228.6875 174.953125 C 229.007812 174.953125 229.3125 174.894531 229.605469 174.773438 C 229.902344 174.648438 230.160156 174.476562 230.386719 174.253906 C 230.609375 174.027344 230.785156 173.769531 230.90625 173.472656 C 231.027344 173.179688 231.089844 172.875 231.089844 172.554688 L 231.089844 168.667969 C 231.09375 166.566406 230.695312 164.542969 229.890625 162.601562 C 229.085938 160.660156 227.9375 158.949219 226.449219 157.464844 Z M 226.449219 157.464844 " fill-opacity="1" fill-rule="nonzero"/><path fill="#00a8a8" d="M 185.273438 164.625 L 185.242188 164.625 L 171.835938 164.570312 C 171.519531 164.570312 171.214844 164.507812 170.917969 164.386719 C 170.625 164.265625 170.367188 164.089844 170.144531 163.867188 C 169.917969 163.640625 169.746094 163.378906 169.625 163.085938 C 169.503906 162.792969 169.441406 162.484375 169.441406 162.167969 C 169.445312 161.851562 169.503906 161.542969 169.628906 161.25 C 169.75 160.957031 169.925781 160.699219 170.148438 160.472656 C 170.375 160.25 170.632812 160.074219 170.929688 159.953125 C 171.222656 159.832031 171.527344 159.773438 171.847656 159.773438 L 171.855469 159.773438 L 185.261719 159.824219 L 185.269531 159.824219 C 185.59375 159.824219 185.90625 159.761719 186.207031 159.640625 C 186.503906 159.515625 186.769531 159.339844 187 159.113281 C 187.226562 158.882812 187.40625 158.621094 187.53125 158.320312 C 187.65625 158.023438 187.71875 157.710938 187.722656 157.390625 L 187.722656 157.378906 C 187.722656 157.054688 187.660156 156.742188 187.539062 156.441406 C 187.414062 156.140625 187.238281 155.875 187.011719 155.644531 C 186.78125 155.414062 186.515625 155.234375 186.21875 155.109375 C 185.917969 154.984375 185.605469 154.921875 185.28125 154.917969 L 176.722656 154.886719 C 176.25 154.882812 175.777344 154.835938 175.308594 154.742188 C 174.84375 154.648438 174.390625 154.507812 173.953125 154.324219 C 173.511719 154.140625 173.097656 153.914062 172.703125 153.648438 C 172.308594 153.382812 171.941406 153.082031 171.605469 152.742188 C 171.273438 152.40625 170.972656 152.039062 170.710938 151.640625 C 170.449219 151.246094 170.226562 150.824219 170.046875 150.386719 C 169.863281 149.945312 169.730469 149.492188 169.636719 149.023438 C 169.546875 148.558594 169.503906 148.085938 169.503906 147.609375 C 169.507812 147.132812 169.554688 146.664062 169.648438 146.195312 C 169.742188 145.730469 169.882812 145.277344 170.066406 144.839844 C 170.25 144.398438 170.476562 143.984375 170.742188 143.589844 C 171.007812 143.195312 171.308594 142.828125 171.648438 142.492188 C 171.984375 142.15625 172.351562 141.859375 172.75 141.597656 C 173.144531 141.332031 173.5625 141.113281 174.003906 140.929688 C 174.445312 140.75 174.898438 140.613281 175.367188 140.523438 C 175.832031 140.433594 176.304688 140.386719 176.78125 140.390625 L 190.195312 140.441406 C 190.515625 140.441406 190.820312 140.503906 191.113281 140.625 C 191.40625 140.75 191.667969 140.921875 191.890625 141.148438 C 192.117188 141.375 192.289062 141.632812 192.410156 141.929688 C 192.53125 142.222656 192.589844 142.527344 192.589844 142.847656 C 192.589844 143.164062 192.527344 143.46875 192.40625 143.765625 C 192.285156 144.058594 192.109375 144.316406 191.882812 144.542969 C 191.660156 144.765625 191.398438 144.9375 191.105469 145.058594 C 190.8125 145.179688 190.503906 145.242188 190.1875 145.242188 L 190.175781 145.242188 L 176.761719 145.1875 L 176.753906 145.1875 C 176.425781 145.1875 176.113281 145.25 175.8125 145.375 C 175.515625 145.496094 175.25 145.671875 175.019531 145.902344 C 174.789062 146.132812 174.609375 146.394531 174.484375 146.695312 C 174.359375 146.996094 174.296875 147.308594 174.296875 147.632812 C 174.296875 147.957031 174.359375 148.269531 174.480469 148.570312 C 174.605469 148.871094 174.78125 149.136719 175.011719 149.367188 C 175.242188 149.597656 175.503906 149.773438 175.804688 149.898438 C 176.105469 150.023438 176.417969 150.085938 176.742188 150.085938 L 185.300781 150.121094 C 185.773438 150.125 186.246094 150.171875 186.710938 150.265625 C 187.175781 150.363281 187.628906 150.5 188.070312 150.683594 C 188.507812 150.871094 188.921875 151.09375 189.316406 151.359375 C 189.710938 151.625 190.078125 151.925781 190.410156 152.265625 C 190.746094 152.601562 191.046875 152.96875 191.308594 153.363281 C 191.570312 153.761719 191.792969 154.179688 191.972656 154.617188 C 192.15625 155.058594 192.292969 155.511719 192.382812 155.980469 C 192.476562 156.445312 192.519531 156.917969 192.519531 157.390625 L 192.519531 157.40625 C 192.515625 157.882812 192.46875 158.351562 192.371094 158.816406 C 192.277344 159.28125 192.140625 159.730469 191.957031 160.171875 C 191.773438 160.609375 191.546875 161.023438 191.285156 161.417969 C 191.019531 161.808594 190.71875 162.175781 190.382812 162.507812 C 190.046875 162.84375 189.679688 163.144531 189.285156 163.40625 C 188.890625 163.667969 188.476562 163.890625 188.035156 164.074219 C 187.597656 164.253906 187.148438 164.390625 186.679688 164.484375 C 186.214844 164.578125 185.746094 164.625 185.273438 164.625 Z M 185.273438 164.625 " fill-opacity="1" fill-rule="nonzero"/><path fill="#00a8a8" d="M 181.054688 145.207031 L 181.046875 145.207031 C 180.726562 145.207031 180.421875 145.144531 180.128906 145.019531 C 179.835938 144.898438 179.578125 144.722656 179.351562 144.496094 C 179.128906 144.269531 178.957031 144.011719 178.835938 143.714844 C 178.714844 143.421875 178.65625 143.113281 178.65625 142.796875 L 178.679688 137.046875 C 178.679688 136.730469 178.742188 136.421875 178.863281 136.128906 C 178.984375 135.839844 179.160156 135.578125 179.382812 135.355469 C 179.609375 135.132812 179.867188 134.960938 180.160156 134.835938 C 180.457031 134.714844 180.761719 134.65625 181.078125 134.65625 L 181.085938 134.65625 C 181.40625 134.65625 181.710938 134.71875 182.003906 134.84375 C 182.296875 134.964844 182.558594 135.140625 182.78125 135.367188 C 183.003906 135.589844 183.175781 135.851562 183.296875 136.144531 C 183.417969 136.441406 183.476562 136.746094 183.476562 137.066406 L 183.453125 142.816406 C 183.453125 143.132812 183.390625 143.4375 183.269531 143.730469 C 183.148438 144.023438 182.972656 144.28125 182.75 144.507812 C 182.523438 144.730469 182.265625 144.902344 181.972656 145.023438 C 181.679688 145.144531 181.375 145.207031 181.054688 145.207031 Z M 181.054688 145.207031 " fill-opacity="1" fill-rule="nonzero"/><path fill="#00a8a8" d="M 180.953125 171.671875 L 180.941406 171.671875 C 180.625 171.671875 180.320312 171.609375 180.027344 171.484375 C 179.730469 171.363281 179.472656 171.1875 179.25 170.964844 C 179.027344 170.738281 178.851562 170.476562 178.730469 170.183594 C 178.613281 169.890625 178.550781 169.582031 178.550781 169.265625 L 178.570312 164.332031 C 178.574219 164.011719 178.636719 163.707031 178.757812 163.414062 C 178.878906 163.121094 179.054688 162.863281 179.277344 162.640625 C 179.503906 162.417969 179.761719 162.242188 180.054688 162.121094 C 180.347656 162 180.652344 161.941406 180.972656 161.941406 L 180.980469 161.941406 C 181.296875 161.941406 181.605469 162.003906 181.898438 162.128906 C 182.191406 162.25 182.449219 162.425781 182.671875 162.648438 C 182.898438 162.875 183.070312 163.136719 183.191406 163.429688 C 183.3125 163.726562 183.371094 164.03125 183.371094 164.347656 L 183.351562 169.285156 C 183.347656 169.601562 183.289062 169.90625 183.164062 170.199219 C 183.042969 170.492188 182.871094 170.75 182.644531 170.972656 C 182.417969 171.195312 182.160156 171.371094 181.867188 171.492188 C 181.574219 171.613281 181.269531 171.671875 180.953125 171.671875 Z M 180.953125 171.671875 " fill-opacity="1" fill-rule="nonzero"/><g clip-path="url(#dfc685a9d4)"><path fill="#00a8a8" d="M 158.054688 172.554688 L 164.777344 172.554688 C 164.242188 172.097656 163.726562 171.617188 163.222656 171.117188 C 162.34375 170.226562 161.53125 169.28125 160.789062 168.273438 C 160.046875 167.265625 159.382812 166.207031 158.796875 165.105469 C 158.210938 164 157.710938 162.855469 157.292969 161.675781 C 156.875 160.496094 156.546875 159.292969 156.304688 158.066406 C 156.0625 156.839844 155.914062 155.601562 155.855469 154.351562 C 155.796875 153.101562 155.832031 151.851562 155.957031 150.609375 C 156.082031 149.363281 156.300781 148.132812 156.605469 146.921875 C 156.910156 145.707031 157.304688 144.523438 157.785156 143.371094 C 158.269531 142.214844 158.832031 141.101562 159.476562 140.027344 C 160.121094 138.957031 160.839844 137.9375 161.636719 136.972656 C 162.429688 136.007812 163.292969 135.101562 164.21875 134.265625 C 165.148438 133.425781 166.132812 132.660156 167.171875 131.964844 C 168.214844 131.269531 169.300781 130.65625 170.429688 130.121094 C 171.5625 129.585938 172.726562 129.140625 173.925781 128.777344 C 175.121094 128.414062 176.339844 128.140625 177.578125 127.957031 C 178.816406 127.773438 180.058594 127.683594 181.308594 127.683594 L 181.410156 127.683594 C 182.664062 127.6875 183.910156 127.785156 185.148438 127.972656 C 186.386719 128.160156 187.605469 128.441406 188.804688 128.808594 C 190.003906 129.175781 191.167969 129.632812 192.296875 130.171875 C 193.429688 130.710938 194.511719 131.332031 195.550781 132.03125 C 196.589844 132.730469 197.574219 133.503906 198.5 134.351562 C 199.425781 135.195312 200.28125 136.105469 201.074219 137.074219 C 201.863281 138.046875 202.582031 139.070312 203.21875 140.148438 C 203.859375 141.226562 204.417969 142.34375 204.894531 143.503906 C 205.367188 144.664062 205.753906 145.851562 206.054688 147.070312 C 206.355469 148.285156 206.5625 149.519531 206.683594 150.765625 C 206.800781 152.011719 206.824219 153.261719 206.757812 154.511719 C 206.691406 155.765625 206.535156 157.003906 206.285156 158.234375 C 206.035156 159.460938 205.699219 160.664062 205.273438 161.84375 C 204.847656 163.019531 204.335938 164.160156 203.738281 165.265625 C 203.144531 166.367188 202.472656 167.421875 201.722656 168.421875 C 200.972656 169.425781 200.152344 170.371094 199.261719 171.253906 C 198.804688 171.707031 198.335938 172.140625 197.851562 172.554688 L 204.574219 172.554688 C 205.488281 171.457031 206.324219 170.300781 207.078125 169.085938 C 207.828125 167.871094 208.492188 166.605469 209.066406 165.296875 C 209.636719 163.988281 210.117188 162.644531 210.5 161.265625 C 210.882812 159.890625 211.167969 158.492188 211.351562 157.074219 C 211.535156 155.65625 211.621094 154.234375 211.605469 152.804688 C 211.585938 151.375 211.46875 149.953125 211.253906 148.539062 C 211.035156 147.125 210.71875 145.734375 210.300781 144.367188 C 209.886719 143 209.378906 141.667969 208.773438 140.371094 C 208.171875 139.074219 207.476562 137.828125 206.699219 136.628906 C 205.917969 135.433594 205.054688 134.296875 204.113281 133.21875 C 203.171875 132.144531 202.160156 131.140625 201.078125 130.207031 C 199.992188 129.273438 198.847656 128.425781 197.644531 127.652344 C 196.4375 126.882812 195.1875 126.203125 193.886719 125.609375 C 192.585938 125.015625 191.25 124.519531 189.875 124.113281 C 188.503906 123.710938 187.113281 123.40625 185.695312 123.199219 C 184.28125 122.996094 182.859375 122.890625 181.429688 122.886719 L 181.308594 122.886719 C 179.875 122.882812 178.453125 122.984375 177.035156 123.183594 C 175.617188 123.386719 174.21875 123.6875 172.84375 124.085938 C 171.46875 124.484375 170.128906 124.980469 168.824219 125.570312 C 167.519531 126.160156 166.261719 126.839844 165.050781 127.605469 C 163.84375 128.375 162.695312 129.226562 161.605469 130.15625 C 160.519531 131.085938 159.503906 132.089844 158.554688 133.164062 C 157.609375 134.242188 156.746094 135.378906 155.960938 136.578125 C 155.175781 137.773438 154.480469 139.023438 153.875 140.320312 C 153.265625 141.617188 152.753906 142.949219 152.335938 144.320312 C 151.917969 145.691406 151.597656 147.082031 151.378906 148.496094 C 151.160156 149.914062 151.039062 151.335938 151.019531 152.769531 C 151.003906 154.199219 151.085938 155.625 151.269531 157.046875 C 151.453125 158.464844 151.738281 159.867188 152.121094 161.246094 C 152.503906 162.625 152.980469 163.972656 153.554688 165.285156 C 154.128906 166.597656 154.792969 167.863281 155.546875 169.078125 C 156.300781 170.296875 157.136719 171.457031 158.054688 172.554688 Z M 158.054688 172.554688 " fill-opacity="1" fill-rule="nonzero"/></g><g clip-path="url(#f9cc8d044b)"><path fill="#00a8a8" d="M 211.082031 228.574219 C 200.753906 228.574219 192.351562 220.171875 192.351562 209.84375 C 192.351562 199.515625 200.753906 191.113281 211.082031 191.113281 L 243.878906 191.113281 L 243.878906 180.519531 C 243.878906 174.804688 239.230469 170.15625 233.515625 170.15625 L 135.191406 170.15625 C 134.777344 170.15625 134.371094 170.113281 133.96875 170.035156 C 133.566406 169.953125 133.171875 169.835938 132.792969 169.675781 C 132.414062 169.519531 132.050781 169.328125 131.710938 169.097656 C 131.367188 168.867188 131.050781 168.609375 130.761719 168.320312 C 130.46875 168.027344 130.210938 167.710938 129.980469 167.367188 C 129.753906 167.027344 129.558594 166.667969 129.402344 166.285156 C 129.246094 165.90625 129.125 165.515625 129.042969 165.109375 C 128.964844 164.707031 128.921875 164.300781 128.921875 163.890625 C 128.921875 163.570312 128.863281 163.265625 128.742188 162.972656 C 128.617188 162.675781 128.445312 162.417969 128.21875 162.191406 C 127.996094 161.96875 127.734375 161.792969 127.441406 161.671875 C 127.148438 161.550781 126.84375 161.488281 126.523438 161.488281 C 126.207031 161.488281 125.898438 161.550781 125.605469 161.671875 C 125.3125 161.792969 125.054688 161.96875 124.828125 162.191406 C 124.601562 162.417969 124.429688 162.675781 124.308594 162.972656 C 124.1875 163.265625 124.125 163.570312 124.125 163.890625 L 124.125 241.746094 C 124.125 247.460938 128.773438 252.113281 134.488281 252.113281 L 233.515625 252.113281 C 239.230469 252.113281 243.878906 247.460938 243.878906 241.746094 L 243.878906 228.574219 Z M 211.082031 228.574219 " fill-opacity="1" fill-rule="nonzero"/></g><g clip-path="url(#79986ae8f5)"><path fill="#00a8a8" d="M 248.472656 223.773438 L 211.082031 223.773438 C 203.402344 223.773438 197.152344 217.527344 197.152344 209.84375 C 197.152344 202.160156 203.402344 195.910156 211.082031 195.910156 L 248.472656 195.910156 C 248.792969 195.910156 249.097656 195.96875 249.390625 196.09375 C 249.683594 196.214844 249.945312 196.386719 250.167969 196.613281 C 250.394531 196.835938 250.566406 197.097656 250.691406 197.390625 C 250.8125 197.683594 250.871094 197.992188 250.871094 198.308594 L 250.871094 221.375 C 250.871094 221.695312 250.8125 222 250.691406 222.292969 C 250.566406 222.589844 250.394531 222.847656 250.167969 223.074219 C 249.945312 223.296875 249.683594 223.472656 249.390625 223.59375 C 249.097656 223.714844 248.792969 223.773438 248.472656 223.773438 Z M 211.082031 200.707031 C 206.046875 200.707031 201.949219 204.804688 201.949219 209.84375 C 201.949219 214.878906 206.046875 218.976562 211.082031 218.976562 L 246.074219 218.976562 L 246.074219 200.707031 Z M 211.082031 200.707031 " fill-opacity="1" fill-rule="nonzero"/></g><path fill="#00a8a8" d="M 216.882812 209.84375 C 216.882812 210.121094 216.855469 210.398438 216.800781 210.671875 C 216.746094 210.949219 216.664062 211.214844 216.558594 211.472656 C 216.449219 211.730469 216.320312 211.976562 216.164062 212.210938 C 216.007812 212.441406 215.832031 212.65625 215.632812 212.855469 C 215.4375 213.054688 215.222656 213.230469 214.988281 213.386719 C 214.753906 213.542969 214.511719 213.671875 214.25 213.78125 C 213.992188 213.886719 213.726562 213.96875 213.453125 214.023438 C 213.175781 214.078125 212.902344 214.105469 212.621094 214.105469 C 212.339844 214.105469 212.0625 214.078125 211.789062 214.023438 C 211.515625 213.96875 211.25 213.886719 210.988281 213.78125 C 210.730469 213.671875 210.484375 213.542969 210.253906 213.386719 C 210.019531 213.230469 209.804688 213.054688 209.609375 212.855469 C 209.410156 212.65625 209.234375 212.441406 209.078125 212.210938 C 208.921875 211.976562 208.789062 211.730469 208.683594 211.472656 C 208.578125 211.214844 208.496094 210.949219 208.441406 210.671875 C 208.386719 210.398438 208.359375 210.121094 208.359375 209.84375 C 208.359375 209.5625 208.386719 209.285156 208.441406 209.011719 C 208.496094 208.738281 208.578125 208.46875 208.683594 208.210938 C 208.789062 207.953125 208.921875 207.707031 209.078125 207.476562 C 209.234375 207.242188 209.410156 207.027344 209.609375 206.828125 C 209.804688 206.632812 210.019531 206.453125 210.253906 206.300781 C 210.484375 206.144531 210.730469 206.011719 210.988281 205.90625 C 211.25 205.796875 211.515625 205.71875 211.789062 205.664062 C 212.0625 205.609375 212.339844 205.582031 212.621094 205.582031 C 212.902344 205.582031 213.175781 205.609375 213.453125 205.664062 C 213.726562 205.71875 213.992188 205.796875 214.25 205.90625 C 214.511719 206.011719 214.753906 206.144531 214.988281 206.300781 C 215.222656 206.453125 215.4375 206.632812 215.632812 206.828125 C 215.832031 207.027344 216.007812 207.242188 216.164062 207.476562 C 216.320312 207.707031 216.449219 207.953125 216.558594 208.210938 C 216.664062 208.46875 216.746094 208.738281 216.800781 209.011719 C 216.855469 209.285156 216.882812 209.5625 216.882812 209.84375 Z M 216.882812 209.84375 " fill-opacity="1" fill-rule="nonzero"/></svg>