<svg xmlns="http://www.w3.org/2000/svg" xmlns:xlink="http://www.w3.org/1999/xlink" width="500" zoomAndPan="magnify" viewBox="0 0 375 374.999991" height="500" preserveAspectRatio="xMidYMid meet" version="1.0"><defs><g/><clipPath id="e63d6b4bc9"><path d="M 37.5 173 L 66 173 L 66 190 L 37.5 190 Z M 37.5 173 " clip-rule="nonzero"/></clipPath><clipPath id="42c9d48f94"><path d="M 56 152.617188 L 99 152.617188 L 99 188 L 56 188 Z M 56 152.617188 " clip-rule="nonzero"/></clipPath><clipPath id="ab878caaa6"><path d="M 37.5 179 L 122 179 L 122 243.367188 L 37.5 243.367188 Z M 37.5 179 " clip-rule="nonzero"/></clipPath><clipPath id="6885b8f133"><path d="M 88 203 L 126.75 203 L 126.75 224 L 88 224 Z M 88 203 " clip-rule="nonzero"/></clipPath></defs><g fill="#00a8a8" fill-opacity="1"><g transform="translate(130.836514, 222.148329)"><g><path d="M 8.8125 -20.53125 C 10.976562 -20.53125 12.648438 -20.085938 13.828125 -19.203125 C 15.015625 -18.328125 15.613281 -17.085938 15.625 -15.484375 C 15.625 -14.304688 15.300781 -13.320312 14.65625 -12.53125 C 14.007812 -11.738281 13.132812 -11.175781 12.03125 -10.84375 L 12.03125 -10.78125 C 13.363281 -10.664062 14.46875 -10.128906 15.34375 -9.171875 C 16.226562 -8.222656 16.671875 -7.078125 16.671875 -5.734375 C 16.671875 -3.921875 15.984375 -2.515625 14.609375 -1.515625 C 13.242188 -0.523438 11.296875 -0.0195312 8.765625 0 L 2.546875 0 L 2.546875 -20.53125 Z M 8.46875 -11.828125 C 9.957031 -11.828125 11.085938 -12.09375 11.859375 -12.625 C 12.628906 -13.15625 13.015625 -14.003906 13.015625 -15.171875 C 13.015625 -17.203125 11.585938 -18.234375 8.734375 -18.265625 L 4.984375 -18.265625 L 4.984375 -11.828125 Z M 9.21875 -2.265625 C 10.6875 -2.265625 11.859375 -2.585938 12.734375 -3.234375 C 13.617188 -3.878906 14.0625 -4.742188 14.0625 -5.828125 C 14.0625 -7.066406 13.625 -8 12.75 -8.625 C 11.882812 -9.25 10.695312 -9.5625 9.1875 -9.5625 L 4.984375 -9.5625 L 4.984375 -2.265625 Z M 9.21875 -2.265625 "/></g></g></g><g fill="#00a8a8" fill-opacity="1"><g transform="translate(147.79657, 222.148329)"><g><path d="M 4.90625 -20.53125 L 4.90625 -8.171875 C 4.90625 -6.085938 5.347656 -4.503906 6.234375 -3.421875 C 7.117188 -2.335938 8.441406 -1.773438 10.203125 -1.734375 C 11.960938 -1.753906 13.28125 -2.3125 14.15625 -3.40625 C 15.039062 -4.5 15.492188 -6.050781 15.515625 -8.0625 L 15.515625 -20.53125 L 17.953125 -20.53125 L 17.953125 -7.75 C 17.953125 -5.132812 17.273438 -3.101562 15.921875 -1.65625 C 14.566406 -0.21875 12.660156 0.503906 10.203125 0.515625 C 7.785156 0.515625 5.894531 -0.210938 4.53125 -1.671875 C 3.175781 -3.128906 2.488281 -5.160156 2.46875 -7.765625 L 2.46875 -20.53125 Z M 4.90625 -20.53125 "/></g></g></g><g fill="#00a8a8" fill-opacity="1"><g transform="translate(166.902049, 222.148329)"><g><path d="M 9.828125 -20.53125 C 12.828125 -20.53125 15.28125 -19.585938 17.1875 -17.703125 C 19.101562 -15.816406 20.082031 -13.335938 20.125 -10.265625 C 20.125 -7.210938 19.160156 -4.75 17.234375 -2.875 C 15.316406 -1 12.867188 -0.0390625 9.890625 0 L 2.171875 0 L 2.171875 -20.53125 Z M 9.25 -2.265625 C 11.820312 -2.265625 13.835938 -2.941406 15.296875 -4.296875 C 16.753906 -5.660156 17.492188 -7.648438 17.515625 -10.265625 C 17.515625 -12.773438 16.796875 -14.726562 15.359375 -16.125 C 13.929688 -17.519531 11.894531 -18.234375 9.25 -18.265625 L 4.609375 -18.265625 L 4.609375 -2.265625 Z M 9.25 -2.265625 "/></g></g></g><g fill="#00a8a8" fill-opacity="1"><g transform="translate(187.080239, 222.148329)"><g><path d="M 12.40625 -21.046875 C 15.445312 -21.046875 17.863281 -20.148438 19.65625 -18.359375 L 17.828125 -16.4375 C 17.117188 -17.195312 16.273438 -17.78125 15.296875 -18.1875 C 14.316406 -18.59375 13.296875 -18.796875 12.234375 -18.796875 C 9.878906 -18.796875 7.921875 -17.984375 6.359375 -16.359375 C 4.804688 -14.734375 4.007812 -12.703125 3.96875 -10.265625 C 3.988281 -7.734375 4.789062 -5.6875 6.375 -4.125 C 7.96875 -2.570312 10 -1.773438 12.46875 -1.734375 C 14.25 -1.734375 15.953125 -2.128906 17.578125 -2.921875 L 17.578125 -9.21875 L 12.84375 -9.21875 L 12.84375 -11.484375 L 20.015625 -11.484375 L 20.015625 -1.390625 C 17.648438 -0.117188 15.085938 0.515625 12.328125 0.515625 C 9.097656 0.515625 6.472656 -0.488281 4.453125 -2.5 C 2.429688 -4.519531 1.398438 -7.109375 1.359375 -10.265625 C 1.378906 -13.421875 2.421875 -15.992188 4.484375 -17.984375 C 6.554688 -19.972656 9.195312 -20.992188 12.40625 -21.046875 Z M 12.40625 -21.046875 "/></g></g></g><g fill="#00a8a8" fill-opacity="1"><g transform="translate(208.331143, 222.148329)"><g><path d="M 15.453125 -20.53125 L 15.453125 -18.265625 L 4.984375 -18.265625 L 4.984375 -11.828125 L 14.765625 -11.828125 L 14.765625 -9.5625 L 4.984375 -9.5625 L 4.984375 -2.265625 L 15.984375 -2.265625 L 15.984375 0 L 2.546875 0 L 2.546875 -20.53125 Z M 15.453125 -20.53125 "/></g></g></g><g fill="#00a8a8" fill-opacity="1"><g transform="translate(224.218488, 222.148329)"><g><path d="M 16.328125 -20.53125 L 16.328125 -18.265625 L 9.546875 -18.265625 L 9.546875 0 L 7.109375 0 L 7.109375 -18.265625 L 0.3125 -18.265625 L 0.3125 -20.53125 Z M 16.328125 -20.53125 "/></g></g></g><g fill="#00a8a8" fill-opacity="1"><g transform="translate(239.554978, 222.148329)"><g><path d="M 8.8125 -20.53125 C 10.976562 -20.53125 12.648438 -20.085938 13.828125 -19.203125 C 15.015625 -18.328125 15.613281 -17.085938 15.625 -15.484375 C 15.625 -14.304688 15.300781 -13.320312 14.65625 -12.53125 C 14.007812 -11.738281 13.132812 -11.175781 12.03125 -10.84375 L 12.03125 -10.78125 C 13.363281 -10.664062 14.46875 -10.128906 15.34375 -9.171875 C 16.226562 -8.222656 16.671875 -7.078125 16.671875 -5.734375 C 16.671875 -3.921875 15.984375 -2.515625 14.609375 -1.515625 C 13.242188 -0.523438 11.296875 -0.0195312 8.765625 0 L 2.546875 0 L 2.546875 -20.53125 Z M 8.46875 -11.828125 C 9.957031 -11.828125 11.085938 -12.09375 11.859375 -12.625 C 12.628906 -13.15625 13.015625 -14.003906 13.015625 -15.171875 C 13.015625 -17.203125 11.585938 -18.234375 8.734375 -18.265625 L 4.984375 -18.265625 L 4.984375 -11.828125 Z M 9.21875 -2.265625 C 10.6875 -2.265625 11.859375 -2.585938 12.734375 -3.234375 C 13.617188 -3.878906 14.0625 -4.742188 14.0625 -5.828125 C 14.0625 -7.066406 13.625 -8 12.75 -8.625 C 11.882812 -9.25 10.695312 -9.5625 9.1875 -9.5625 L 4.984375 -9.5625 L 4.984375 -2.265625 Z M 9.21875 -2.265625 "/></g></g></g><g fill="#00a8a8" fill-opacity="1"><g transform="translate(256.515029, 222.148329)"><g><path d="M 4.90625 -20.53125 L 4.90625 -8.171875 C 4.90625 -6.085938 5.347656 -4.503906 6.234375 -3.421875 C 7.117188 -2.335938 8.441406 -1.773438 10.203125 -1.734375 C 11.960938 -1.753906 13.28125 -2.3125 14.15625 -3.40625 C 15.039062 -4.5 15.492188 -6.050781 15.515625 -8.0625 L 15.515625 -20.53125 L 17.953125 -20.53125 L 17.953125 -7.75 C 17.953125 -5.132812 17.273438 -3.101562 15.921875 -1.65625 C 14.566406 -0.21875 12.660156 0.503906 10.203125 0.515625 C 7.785156 0.515625 5.894531 -0.210938 4.53125 -1.671875 C 3.175781 -3.128906 2.488281 -5.160156 2.46875 -7.765625 L 2.46875 -20.53125 Z M 4.90625 -20.53125 "/></g></g></g><g fill="#00a8a8" fill-opacity="1"><g transform="translate(275.620504, 222.148329)"><g><path d="M 9.828125 -20.53125 C 12.828125 -20.53125 15.28125 -19.585938 17.1875 -17.703125 C 19.101562 -15.816406 20.082031 -13.335938 20.125 -10.265625 C 20.125 -7.210938 19.160156 -4.75 17.234375 -2.875 C 15.316406 -1 12.867188 -0.0390625 9.890625 0 L 2.171875 0 L 2.171875 -20.53125 Z M 9.25 -2.265625 C 11.820312 -2.265625 13.835938 -2.941406 15.296875 -4.296875 C 16.753906 -5.660156 17.492188 -7.648438 17.515625 -10.265625 C 17.515625 -12.773438 16.796875 -14.726562 15.359375 -16.125 C 13.929688 -17.519531 11.894531 -18.234375 9.25 -18.265625 L 4.609375 -18.265625 L 4.609375 -2.265625 Z M 9.25 -2.265625 "/></g></g></g><g fill="#00a8a8" fill-opacity="1"><g transform="translate(295.798691, 222.148329)"><g><path d="M 9.828125 -20.53125 C 12.828125 -20.53125 15.28125 -19.585938 17.1875 -17.703125 C 19.101562 -15.816406 20.082031 -13.335938 20.125 -10.265625 C 20.125 -7.210938 19.160156 -4.75 17.234375 -2.875 C 15.316406 -1 12.867188 -0.0390625 9.890625 0 L 2.171875 0 L 2.171875 -20.53125 Z M 9.25 -2.265625 C 11.820312 -2.265625 13.835938 -2.941406 15.296875 -4.296875 C 16.753906 -5.660156 17.492188 -7.648438 17.515625 -10.265625 C 17.515625 -12.773438 16.796875 -14.726562 15.359375 -16.125 C 13.929688 -17.519531 11.894531 -18.234375 9.25 -18.265625 L 4.609375 -18.265625 L 4.609375 -2.265625 Z M 9.25 -2.265625 "/></g></g></g><g fill="#00a8a8" fill-opacity="1"><g transform="translate(315.976878, 222.148329)"><g><path d="M 2.84375 -20.53125 L 8.609375 -11.25 L 14.5625 -20.53125 L 17.484375 -20.53125 L 9.828125 -8.84375 L 9.828125 0 L 7.390625 0 L 7.390625 -8.84375 L -0.265625 -20.53125 Z M 2.84375 -20.53125 "/></g></g></g><g clip-path="url(#e63d6b4bc9)"><path fill="#00a8a8" d="M 62.144531 185.867188 L 45.273438 185.867188 C 44.984375 185.867188 44.699219 185.835938 44.414062 185.78125 C 44.132812 185.726562 43.855469 185.640625 43.589844 185.53125 C 43.320312 185.421875 43.066406 185.285156 42.828125 185.125 C 42.585938 184.964844 42.367188 184.78125 42.160156 184.578125 C 41.957031 184.371094 41.773438 184.148438 41.613281 183.910156 C 41.453125 183.667969 41.316406 183.414062 41.207031 183.148438 C 41.097656 182.882812 41.011719 182.605469 40.957031 182.324219 C 40.898438 182.039062 40.871094 181.753906 40.871094 181.464844 C 40.871094 181.175781 40.898438 180.886719 40.957031 180.605469 C 41.011719 180.320312 41.097656 180.046875 41.207031 179.777344 C 41.316406 179.511719 41.453125 179.257812 41.613281 179.019531 C 41.773438 178.777344 41.957031 178.554688 42.160156 178.351562 C 42.367188 178.144531 42.585938 177.964844 42.828125 177.804688 C 43.066406 177.644531 43.320312 177.507812 43.589844 177.394531 C 43.855469 177.285156 44.132812 177.203125 44.414062 177.144531 C 44.699219 177.089844 44.984375 177.0625 45.273438 177.0625 L 58.335938 177.0625 C 58.167969 176 58.082031 174.929688 58.089844 173.855469 C 58.089844 173.800781 58.089844 173.746094 58.089844 173.691406 L 45.273438 173.691406 C 40.988281 173.691406 37.5 177.179688 37.5 181.464844 C 37.5 185.75 40.988281 189.238281 45.273438 189.238281 L 65.453125 189.238281 C 64.214844 188.246094 63.109375 187.121094 62.144531 185.867188 Z M 62.144531 185.867188 " fill-opacity="1" fill-rule="nonzero"/></g><path fill="#00a8a8" d="M 109.378906 176.949219 C 108.339844 175.902344 107.136719 175.097656 105.773438 174.53125 C 104.40625 173.96875 102.988281 173.6875 101.507812 173.691406 L 97.257812 173.691406 C 97.257812 173.796875 97.257812 173.902344 97.257812 174.003906 C 97.253906 175.03125 97.171875 176.050781 97.007812 177.0625 L 101.507812 177.0625 C 105.789062 177.0625 109.269531 180.542969 109.269531 184.820312 L 109.269531 185.867188 L 93.203125 185.867188 C 92.238281 187.121094 91.132812 188.246094 89.894531 189.238281 L 110.953125 189.238281 C 111.179688 189.238281 111.394531 189.195312 111.601562 189.109375 C 111.804688 189.023438 111.988281 188.902344 112.144531 188.742188 C 112.304688 188.585938 112.425781 188.402344 112.511719 188.195312 C 112.597656 187.988281 112.640625 187.773438 112.640625 187.550781 L 112.640625 184.820312 C 112.644531 183.34375 112.363281 181.921875 111.796875 180.558594 C 111.234375 179.195312 110.425781 177.992188 109.378906 176.949219 Z M 109.378906 176.949219 " fill-opacity="1" fill-rule="nonzero"/><path fill="#00a8a8" d="M 80.457031 181.980469 L 80.433594 181.980469 L 71.019531 181.941406 C 70.792969 181.941406 70.578125 181.898438 70.375 181.8125 C 70.167969 181.726562 69.984375 181.605469 69.828125 181.445312 C 69.667969 181.289062 69.546875 181.105469 69.460938 180.898438 C 69.378906 180.691406 69.335938 180.476562 69.335938 180.253906 C 69.335938 180.03125 69.378906 179.816406 69.464844 179.609375 C 69.550781 179.402344 69.671875 179.222656 69.832031 179.0625 C 69.988281 178.90625 70.171875 178.785156 70.378906 178.699219 C 70.585938 178.613281 70.800781 178.570312 71.023438 178.574219 L 71.03125 178.574219 L 80.449219 178.609375 L 80.453125 178.609375 C 80.683594 178.609375 80.902344 178.566406 81.109375 178.476562 C 81.320312 178.390625 81.507812 178.269531 81.667969 178.109375 C 81.828125 177.945312 81.953125 177.761719 82.042969 177.550781 C 82.128906 177.34375 82.175781 177.125 82.175781 176.898438 L 82.175781 176.890625 C 82.175781 176.660156 82.132812 176.441406 82.046875 176.230469 C 81.960938 176.019531 81.835938 175.832031 81.675781 175.671875 C 81.515625 175.507812 81.328125 175.382812 81.121094 175.296875 C 80.910156 175.207031 80.691406 175.164062 80.460938 175.164062 L 74.449219 175.140625 C 74.117188 175.136719 73.785156 175.105469 73.457031 175.035156 C 73.128906 174.96875 72.8125 174.871094 72.503906 174.742188 C 72.195312 174.613281 71.902344 174.457031 71.625 174.269531 C 71.347656 174.082031 71.089844 173.871094 70.855469 173.632812 C 70.621094 173.394531 70.410156 173.136719 70.226562 172.859375 C 70.042969 172.582031 69.886719 172.285156 69.757812 171.976562 C 69.632812 171.667969 69.535156 171.347656 69.472656 171.019531 C 69.410156 170.691406 69.378906 170.363281 69.378906 170.027344 C 69.378906 169.691406 69.414062 169.363281 69.480469 169.035156 C 69.546875 168.707031 69.644531 168.390625 69.773438 168.082031 C 69.902344 167.773438 70.0625 167.480469 70.246094 167.203125 C 70.433594 166.925781 70.648438 166.667969 70.882812 166.433594 C 71.121094 166.199219 71.378906 165.988281 71.65625 165.804688 C 71.9375 165.617188 72.230469 165.460938 72.539062 165.335938 C 72.847656 165.210938 73.167969 165.113281 73.496094 165.050781 C 73.824219 164.984375 74.15625 164.953125 74.488281 164.957031 L 83.914062 164.992188 C 84.136719 164.992188 84.351562 165.035156 84.558594 165.121094 C 84.765625 165.207031 84.945312 165.332031 85.105469 165.488281 C 85.261719 165.648438 85.382812 165.828125 85.46875 166.035156 C 85.554688 166.242188 85.597656 166.457031 85.597656 166.679688 C 85.59375 166.90625 85.550781 167.121094 85.464844 167.324219 C 85.378906 167.53125 85.257812 167.714844 85.101562 167.871094 C 84.941406 168.03125 84.757812 168.152344 84.550781 168.234375 C 84.347656 168.320312 84.132812 168.363281 83.90625 168.363281 L 83.902344 168.363281 L 74.476562 168.328125 L 74.46875 168.328125 C 74.242188 168.324219 74.023438 168.371094 73.8125 168.457031 C 73.601562 168.542969 73.414062 168.667969 73.253906 168.828125 C 73.089844 168.988281 72.964844 169.175781 72.878906 169.386719 C 72.789062 169.597656 72.746094 169.816406 72.746094 170.042969 C 72.746094 170.273438 72.789062 170.492188 72.875 170.703125 C 72.960938 170.914062 73.085938 171.101562 73.246094 171.261719 C 73.410156 171.421875 73.59375 171.546875 73.804688 171.636719 C 74.015625 171.722656 74.234375 171.769531 74.464844 171.769531 L 80.472656 171.792969 C 80.808594 171.792969 81.140625 171.828125 81.464844 171.894531 C 81.792969 171.960938 82.113281 172.058594 82.417969 172.1875 C 82.726562 172.316406 83.019531 172.476562 83.296875 172.660156 C 83.574219 172.847656 83.832031 173.058594 84.066406 173.296875 C 84.300781 173.535156 84.511719 173.792969 84.695312 174.070312 C 84.878906 174.347656 85.035156 174.640625 85.164062 174.953125 C 85.289062 175.261719 85.386719 175.578125 85.449219 175.90625 C 85.515625 176.234375 85.546875 176.566406 85.546875 176.898438 L 85.546875 176.910156 C 85.542969 177.242188 85.511719 177.574219 85.445312 177.898438 C 85.375 178.226562 85.277344 178.542969 85.152344 178.851562 C 85.023438 179.15625 84.863281 179.449219 84.679688 179.726562 C 84.492188 180.003906 84.28125 180.257812 84.046875 180.492188 C 83.808594 180.730469 83.550781 180.9375 83.273438 181.125 C 82.996094 181.308594 82.707031 181.464844 82.398438 181.59375 C 82.089844 181.71875 81.773438 181.816406 81.445312 181.882812 C 81.117188 181.945312 80.789062 181.980469 80.457031 181.980469 Z M 80.457031 181.980469 " fill-opacity="1" fill-rule="nonzero"/><path fill="#00a8a8" d="M 77.492188 168.339844 L 77.488281 168.339844 C 77.261719 168.339844 77.046875 168.292969 76.84375 168.207031 C 76.636719 168.121094 76.453125 168 76.296875 167.839844 C 76.140625 167.683594 76.019531 167.5 75.933594 167.292969 C 75.847656 167.085938 75.808594 166.871094 75.808594 166.648438 L 75.824219 162.605469 C 75.824219 162.382812 75.867188 162.167969 75.953125 161.964844 C 76.039062 161.757812 76.160156 161.578125 76.320312 161.417969 C 76.476562 161.261719 76.660156 161.140625 76.867188 161.054688 C 77.070312 160.96875 77.285156 160.925781 77.507812 160.925781 L 77.515625 160.925781 C 77.738281 160.929688 77.953125 160.972656 78.160156 161.058594 C 78.367188 161.144531 78.546875 161.265625 78.707031 161.425781 C 78.863281 161.585938 78.984375 161.765625 79.070312 161.972656 C 79.152344 162.179688 79.195312 162.394531 79.195312 162.621094 L 79.179688 166.660156 C 79.179688 166.882812 79.132812 167.097656 79.050781 167.304688 C 78.964844 167.507812 78.839844 167.691406 78.683594 167.847656 C 78.523438 168.003906 78.34375 168.125 78.136719 168.210938 C 77.929688 168.296875 77.714844 168.339844 77.492188 168.339844 Z M 77.492188 168.339844 " fill-opacity="1" fill-rule="nonzero"/><path fill="#00a8a8" d="M 77.421875 186.929688 L 77.414062 186.929688 C 77.191406 186.929688 76.976562 186.886719 76.769531 186.800781 C 76.5625 186.714844 76.382812 186.589844 76.222656 186.433594 C 76.066406 186.273438 75.945312 186.09375 75.859375 185.886719 C 75.777344 185.679688 75.734375 185.464844 75.734375 185.238281 L 75.75 181.773438 C 75.75 181.550781 75.792969 181.335938 75.878906 181.128906 C 75.964844 180.925781 76.085938 180.742188 76.246094 180.585938 C 76.402344 180.429688 76.585938 180.308594 76.789062 180.222656 C 76.996094 180.136719 77.210938 180.09375 77.433594 180.09375 L 77.441406 180.09375 C 77.664062 180.09375 77.878906 180.140625 78.085938 180.226562 C 78.289062 180.3125 78.472656 180.433594 78.628906 180.59375 C 78.789062 180.75 78.910156 180.933594 78.992188 181.140625 C 79.078125 181.347656 79.121094 181.5625 79.117188 181.785156 L 79.105469 185.253906 C 79.105469 185.476562 79.0625 185.691406 78.976562 185.894531 C 78.890625 186.101562 78.765625 186.28125 78.609375 186.441406 C 78.453125 186.597656 78.269531 186.71875 78.0625 186.804688 C 77.859375 186.886719 77.644531 186.929688 77.421875 186.929688 Z M 77.421875 186.929688 " fill-opacity="1" fill-rule="nonzero"/><g clip-path="url(#42c9d48f94)"><path fill="#00a8a8" d="M 61.335938 187.550781 L 66.058594 187.550781 C 65.683594 187.230469 65.320312 186.894531 64.96875 186.539062 C 64.347656 185.917969 63.777344 185.25 63.257812 184.542969 C 62.734375 183.835938 62.269531 183.09375 61.859375 182.316406 C 61.445312 181.539062 61.09375 180.738281 60.800781 179.910156 C 60.507812 179.082031 60.273438 178.234375 60.105469 177.371094 C 59.9375 176.511719 59.832031 175.640625 59.792969 174.761719 C 59.75 173.882812 59.773438 173.007812 59.863281 172.132812 C 59.949219 171.257812 60.101562 170.394531 60.316406 169.542969 C 60.53125 168.691406 60.808594 167.859375 61.148438 167.046875 C 61.484375 166.238281 61.878906 165.457031 62.332031 164.703125 C 62.785156 163.949219 63.292969 163.234375 63.851562 162.554688 C 64.410156 161.875 65.015625 161.242188 65.667969 160.652344 C 66.320312 160.0625 67.011719 159.523438 67.742188 159.035156 C 68.472656 158.550781 69.234375 158.117188 70.03125 157.742188 C 70.824219 157.367188 71.644531 157.050781 72.484375 156.796875 C 73.324219 156.542969 74.179688 156.351562 75.050781 156.222656 C 75.917969 156.09375 76.792969 156.027344 77.671875 156.027344 L 77.742188 156.027344 C 78.625 156.03125 79.5 156.101562 80.367188 156.234375 C 81.238281 156.367188 82.09375 156.5625 82.9375 156.820312 C 83.777344 157.078125 84.597656 157.398438 85.390625 157.777344 C 86.183594 158.15625 86.945312 158.59375 87.675781 159.085938 C 88.40625 159.578125 89.097656 160.117188 89.746094 160.710938 C 90.398438 161.304688 91 161.945312 91.554688 162.628906 C 92.109375 163.308594 92.613281 164.03125 93.0625 164.785156 C 93.511719 165.542969 93.90625 166.328125 94.238281 167.144531 C 94.570312 167.957031 94.84375 168.792969 95.054688 169.648438 C 95.265625 170.503906 95.414062 171.367188 95.496094 172.242188 C 95.578125 173.121094 95.597656 174 95.550781 174.878906 C 95.503906 175.757812 95.390625 176.628906 95.21875 177.488281 C 95.042969 178.351562 94.804688 179.199219 94.503906 180.027344 C 94.207031 180.851562 93.847656 181.65625 93.429688 182.429688 C 93.011719 183.203125 92.539062 183.945312 92.011719 184.648438 C 91.484375 185.355469 90.90625 186.015625 90.28125 186.636719 C 89.960938 186.953125 89.632812 187.257812 89.292969 187.550781 L 94.015625 187.550781 C 94.65625 186.78125 95.242188 185.96875 95.773438 185.113281 C 96.300781 184.257812 96.765625 183.371094 97.167969 182.453125 C 97.570312 181.53125 97.90625 180.589844 98.175781 179.621094 C 98.445312 178.652344 98.644531 177.671875 98.777344 176.675781 C 98.90625 175.679688 98.964844 174.679688 98.953125 173.675781 C 98.941406 172.671875 98.859375 171.671875 98.707031 170.679688 C 98.550781 169.6875 98.332031 168.710938 98.039062 167.75 C 97.746094 166.789062 97.390625 165.851562 96.964844 164.941406 C 96.539062 164.03125 96.054688 163.15625 95.507812 162.316406 C 94.957031 161.472656 94.351562 160.675781 93.691406 159.917969 C 93.03125 159.164062 92.320312 158.457031 91.558594 157.804688 C 90.796875 157.148438 89.992188 156.550781 89.144531 156.007812 C 88.300781 155.46875 87.421875 154.988281 86.507812 154.574219 C 85.59375 154.15625 84.652344 153.804688 83.691406 153.523438 C 82.726562 153.238281 81.746094 153.027344 80.753906 152.878906 C 79.757812 152.734375 78.761719 152.660156 77.757812 152.660156 L 77.671875 152.660156 C 76.664062 152.65625 75.664062 152.726562 74.667969 152.871094 C 73.671875 153.011719 72.691406 153.222656 71.726562 153.503906 C 70.757812 153.785156 69.816406 154.132812 68.898438 154.546875 C 67.984375 154.960938 67.101562 155.4375 66.25 155.976562 C 65.402344 156.515625 64.59375 157.113281 63.832031 157.765625 C 63.066406 158.421875 62.351562 159.125 61.6875 159.882812 C 61.023438 160.636719 60.414062 161.433594 59.863281 162.277344 C 59.3125 163.117188 58.824219 163.996094 58.398438 164.90625 C 57.972656 165.816406 57.613281 166.753906 57.320312 167.714844 C 57.023438 168.679688 56.800781 169.65625 56.644531 170.652344 C 56.492188 171.644531 56.40625 172.644531 56.394531 173.652344 C 56.382812 174.65625 56.441406 175.660156 56.570312 176.65625 C 56.699219 177.652344 56.898438 178.636719 57.167969 179.605469 C 57.4375 180.578125 57.773438 181.523438 58.175781 182.445312 C 58.578125 183.367188 59.042969 184.253906 59.574219 185.109375 C 60.101562 185.964844 60.691406 186.777344 61.335938 187.550781 Z M 61.335938 187.550781 " fill-opacity="1" fill-rule="nonzero"/></g><g clip-path="url(#ab878caaa6)"><path fill="#00a8a8" d="M 98.585938 226.902344 C 91.332031 226.902344 85.429688 221 85.429688 213.746094 C 85.429688 206.488281 91.332031 200.585938 98.585938 200.585938 L 121.625 200.585938 L 121.625 193.144531 C 121.625 189.132812 118.359375 185.867188 114.34375 185.867188 L 45.273438 185.867188 C 44.984375 185.867188 44.699219 185.835938 44.414062 185.78125 C 44.132812 185.722656 43.855469 185.640625 43.589844 185.527344 C 43.324219 185.417969 43.070312 185.28125 42.828125 185.121094 C 42.589844 184.960938 42.367188 184.777344 42.164062 184.574219 C 41.957031 184.371094 41.777344 184.148438 41.613281 183.90625 C 41.453125 183.667969 41.320312 183.414062 41.207031 183.148438 C 41.097656 182.878906 41.011719 182.605469 40.957031 182.320312 C 40.898438 182.039062 40.871094 181.753906 40.871094 181.464844 C 40.871094 181.238281 40.828125 181.023438 40.742188 180.816406 C 40.65625 180.613281 40.535156 180.429688 40.378906 180.273438 C 40.21875 180.113281 40.039062 179.992188 39.832031 179.90625 C 39.625 179.820312 39.410156 179.777344 39.1875 179.777344 C 38.960938 179.777344 38.746094 179.820312 38.542969 179.90625 C 38.335938 179.992188 38.152344 180.113281 37.996094 180.273438 C 37.835938 180.429688 37.714844 180.613281 37.628906 180.816406 C 37.542969 181.023438 37.5 181.238281 37.5 181.464844 L 37.5 236.15625 C 37.5 240.171875 40.765625 243.4375 44.78125 243.4375 L 114.34375 243.4375 C 118.359375 243.4375 121.625 240.171875 121.625 236.15625 L 121.625 226.902344 Z M 98.585938 226.902344 " fill-opacity="1" fill-rule="nonzero"/></g><g clip-path="url(#6885b8f133)"><path fill="#00a8a8" d="M 124.851562 223.53125 L 98.585938 223.53125 C 93.191406 223.53125 88.800781 219.140625 88.800781 213.746094 C 88.800781 208.347656 93.191406 203.957031 98.585938 203.957031 L 124.851562 203.957031 C 125.078125 203.957031 125.292969 204 125.496094 204.085938 C 125.703125 204.171875 125.886719 204.292969 126.042969 204.449219 C 126.203125 204.609375 126.324219 204.789062 126.410156 204.996094 C 126.496094 205.203125 126.539062 205.417969 126.539062 205.640625 L 126.539062 221.847656 C 126.539062 222.070312 126.496094 222.285156 126.410156 222.492188 C 126.324219 222.699219 126.203125 222.878906 126.042969 223.039062 C 125.886719 223.195312 125.703125 223.316406 125.496094 223.402344 C 125.292969 223.488281 125.078125 223.53125 124.851562 223.53125 Z M 98.585938 207.328125 C 95.050781 207.328125 92.171875 210.207031 92.171875 213.746094 C 92.171875 217.28125 95.050781 220.160156 98.585938 220.160156 L 123.167969 220.160156 L 123.167969 207.328125 Z M 98.585938 207.328125 " fill-opacity="1" fill-rule="nonzero"/></g><path fill="#00a8a8" d="M 102.660156 213.746094 C 102.660156 214.140625 102.585938 214.523438 102.433594 214.890625 C 102.28125 215.257812 102.0625 215.582031 101.785156 215.859375 C 101.503906 216.140625 101.179688 216.359375 100.8125 216.511719 C 100.445312 216.660156 100.0625 216.738281 99.667969 216.738281 C 99.269531 216.738281 98.886719 216.660156 98.519531 216.511719 C 98.15625 216.359375 97.832031 216.140625 97.550781 215.859375 C 97.269531 215.582031 97.054688 215.257812 96.902344 214.890625 C 96.75 214.523438 96.671875 214.140625 96.671875 213.746094 C 96.671875 213.347656 96.75 212.964844 96.902344 212.597656 C 97.054688 212.230469 97.269531 211.910156 97.550781 211.628906 C 97.832031 211.347656 98.15625 211.128906 98.519531 210.980469 C 98.886719 210.828125 99.269531 210.75 99.667969 210.75 C 100.0625 210.75 100.445312 210.828125 100.8125 210.980469 C 101.179688 211.128906 101.503906 211.347656 101.785156 211.628906 C 102.0625 211.910156 102.28125 212.230469 102.433594 212.597656 C 102.585938 212.964844 102.660156 213.347656 102.660156 213.746094 Z M 102.660156 213.746094 " fill-opacity="1" fill-rule="nonzero"/></svg>