<svg xmlns="http://www.w3.org/2000/svg" xmlns:xlink="http://www.w3.org/1999/xlink" width="500" zoomAndPan="magnify" viewBox="0 0 375 374.999991" height="500" preserveAspectRatio="xMidYMid meet" version="1.0"><defs><clipPath id="adce04af9e"><path d="M 37.5 105 L 132 105 L 132 158 L 37.5 158 Z M 37.5 105 " clip-rule="nonzero"/></clipPath><clipPath id="874d81dfaa"><path d="M 101 34.4375 L 245 34.4375 L 245 153 L 101 153 Z M 101 34.4375 " clip-rule="nonzero"/></clipPath><clipPath id="fc95dfa04f"><path d="M 37.5 125 L 321 125 L 321 340.4375 L 37.5 340.4375 Z M 37.5 125 " clip-rule="nonzero"/></clipPath><clipPath id="732fbdbef0"><path d="M 210 207 L 337.5 207 L 337.5 274 L 210 274 Z M 210 207 " clip-rule="nonzero"/></clipPath></defs><g clip-path="url(#adce04af9e)"><path fill="#00a8a8" d="M 120.53125 146.460938 L 63.691406 146.460938 C 62.71875 146.460938 61.753906 146.367188 60.796875 146.175781 C 59.84375 145.984375 58.914062 145.703125 58.015625 145.332031 C 57.117188 144.957031 56.261719 144.503906 55.453125 143.960938 C 54.640625 143.417969 53.894531 142.804688 53.203125 142.117188 C 52.515625 141.425781 51.902344 140.679688 51.359375 139.867188 C 50.816406 139.058594 50.359375 138.203125 49.988281 137.304688 C 49.617188 136.402344 49.335938 135.476562 49.144531 134.523438 C 48.953125 133.566406 48.859375 132.601562 48.859375 131.628906 C 48.859375 130.652344 48.953125 129.6875 49.144531 128.734375 C 49.335938 127.777344 49.617188 126.851562 49.988281 125.953125 C 50.359375 125.050781 50.816406 124.195312 51.359375 123.386719 C 51.902344 122.578125 52.515625 121.828125 53.203125 121.140625 C 53.894531 120.449219 54.640625 119.835938 55.453125 119.292969 C 56.261719 118.753906 57.117188 118.296875 58.015625 117.925781 C 58.914062 117.550781 59.84375 117.269531 60.796875 117.078125 C 61.753906 116.890625 62.71875 116.792969 63.691406 116.792969 L 107.703125 116.792969 C 107.128906 113.214844 106.851562 109.613281 106.867188 105.988281 C 106.867188 105.808594 106.867188 105.621094 106.867188 105.4375 L 63.691406 105.4375 C 49.253906 105.4375 37.503906 117.1875 37.503906 131.628906 C 37.503906 146.066406 49.25 157.816406 63.691406 157.816406 L 131.679688 157.816406 C 127.507812 154.480469 123.792969 150.695312 120.53125 146.460938 Z M 120.53125 146.460938 " fill-opacity="1" fill-rule="nonzero"/></g><path fill="#00a8a8" d="M 279.6875 116.421875 C 277.949219 114.675781 276.058594 113.117188 274.011719 111.746094 C 271.964844 110.371094 269.804688 109.214844 267.527344 108.273438 C 265.253906 107.328125 262.90625 106.621094 260.488281 106.144531 C 258.070312 105.664062 255.632812 105.429688 253.167969 105.4375 L 238.84375 105.4375 C 238.84375 105.789062 238.84375 106.144531 238.84375 106.5 C 238.832031 109.953125 238.554688 113.382812 238.007812 116.792969 L 253.164062 116.792969 C 267.582031 116.792969 279.308594 128.523438 279.308594 142.9375 L 279.308594 146.460938 L 225.1875 146.460938 C 221.925781 150.695312 218.210938 154.480469 214.039062 157.816406 L 284.992188 157.816406 C 285.363281 157.816406 285.734375 157.78125 286.101562 157.707031 C 286.464844 157.636719 286.820312 157.527344 287.164062 157.382812 C 287.507812 157.242188 287.835938 157.066406 288.144531 156.859375 C 288.457031 156.652344 288.742188 156.417969 289.007812 156.152344 C 289.269531 155.890625 289.507812 155.601562 289.714844 155.292969 C 289.921875 154.984375 290.09375 154.65625 290.238281 154.3125 C 290.378906 153.96875 290.488281 153.613281 290.5625 153.246094 C 290.632812 152.882812 290.671875 152.511719 290.671875 152.140625 L 290.671875 142.941406 C 290.675781 140.476562 290.441406 138.035156 289.964844 135.621094 C 289.488281 133.203125 288.777344 130.855469 287.835938 128.582031 C 286.890625 126.304688 285.734375 124.144531 284.363281 122.097656 C 282.992188 120.050781 281.433594 118.160156 279.6875 116.421875 Z M 279.6875 116.421875 " fill-opacity="1" fill-rule="nonzero"/><path fill="#00a8a8" d="M 182.230469 133.367188 L 182.160156 133.367188 L 150.429688 133.242188 C 150.058594 133.242188 149.691406 133.203125 149.324219 133.128906 C 148.957031 133.058594 148.605469 132.949219 148.257812 132.804688 C 147.914062 132.660156 147.589844 132.488281 147.277344 132.277344 C 146.96875 132.070312 146.683594 131.835938 146.417969 131.570312 C 146.15625 131.308594 145.921875 131.019531 145.714844 130.710938 C 145.507812 130.398438 145.335938 130.070312 145.191406 129.726562 C 145.050781 129.382812 144.945312 129.027344 144.871094 128.660156 C 144.800781 128.292969 144.765625 127.925781 144.765625 127.550781 C 144.765625 127.179688 144.800781 126.808594 144.875 126.445312 C 144.949219 126.078125 145.058594 125.726562 145.203125 125.378906 C 145.34375 125.035156 145.519531 124.710938 145.726562 124.398438 C 145.9375 124.089844 146.171875 123.804688 146.4375 123.539062 C 146.699219 123.277344 146.988281 123.042969 147.296875 122.835938 C 147.609375 122.628906 147.9375 122.457031 148.28125 122.3125 C 148.625 122.171875 148.980469 122.066406 149.347656 121.992188 C 149.710938 121.921875 150.082031 121.886719 150.453125 121.886719 L 150.476562 121.886719 L 182.203125 122.007812 L 182.226562 122.007812 C 182.605469 122.007812 182.980469 121.972656 183.355469 121.898438 C 183.726562 121.824219 184.085938 121.714844 184.4375 121.570312 C 184.789062 121.425781 185.121094 121.246094 185.4375 121.035156 C 185.753906 120.824219 186.046875 120.585938 186.316406 120.320312 C 186.582031 120.050781 186.824219 119.761719 187.035156 119.445312 C 187.246094 119.132812 187.425781 118.800781 187.574219 118.449219 C 187.71875 118.101562 187.832031 117.738281 187.90625 117.367188 C 187.984375 116.996094 188.023438 116.621094 188.027344 116.242188 L 188.027344 116.214844 C 188.027344 115.835938 187.992188 115.457031 187.917969 115.085938 C 187.847656 114.710938 187.738281 114.347656 187.59375 113.996094 C 187.449219 113.644531 187.269531 113.308594 187.0625 112.992188 C 186.851562 112.671875 186.613281 112.378906 186.34375 112.109375 C 186.074219 111.839844 185.785156 111.597656 185.46875 111.386719 C 185.152344 111.171875 184.816406 110.992188 184.46875 110.847656 C 184.117188 110.699219 183.753906 110.585938 183.378906 110.511719 C 183.007812 110.4375 182.628906 110.398438 182.25 110.394531 L 161.996094 110.316406 C 161.433594 110.316406 160.875 110.285156 160.316406 110.226562 C 159.757812 110.171875 159.203125 110.085938 158.652344 109.972656 C 158.101562 109.863281 157.558594 109.722656 157.019531 109.558594 C 156.484375 109.394531 155.957031 109.203125 155.4375 108.984375 C 154.917969 108.769531 154.414062 108.527344 153.917969 108.261719 C 153.425781 107.992188 152.945312 107.703125 152.476562 107.390625 C 152.011719 107.074219 151.5625 106.738281 151.128906 106.382812 C 150.695312 106.023438 150.28125 105.644531 149.886719 105.246094 C 149.492188 104.847656 149.117188 104.429688 148.761719 103.992188 C 148.40625 103.558594 148.074219 103.105469 147.761719 102.636719 C 147.453125 102.167969 147.167969 101.6875 146.902344 101.191406 C 146.640625 100.695312 146.402344 100.1875 146.191406 99.664062 C 145.976562 99.144531 145.789062 98.617188 145.628906 98.078125 C 145.46875 97.539062 145.332031 96.996094 145.226562 96.445312 C 145.117188 95.890625 145.039062 95.335938 144.984375 94.777344 C 144.933594 94.21875 144.90625 93.65625 144.910156 93.097656 C 144.910156 92.535156 144.941406 91.972656 145 91.414062 C 145.054688 90.855469 145.140625 90.300781 145.25 89.75 C 145.363281 89.199219 145.503906 88.65625 145.667969 88.121094 C 145.832031 87.582031 146.023438 87.054688 146.242188 86.535156 C 146.457031 86.019531 146.699219 85.511719 146.964844 85.015625 C 147.234375 84.523438 147.523438 84.042969 147.835938 83.578125 C 148.152344 83.109375 148.488281 82.660156 148.84375 82.226562 C 149.203125 81.796875 149.582031 81.382812 149.980469 80.984375 C 150.378906 80.589844 150.796875 80.214844 151.230469 79.859375 C 151.667969 79.503906 152.121094 79.171875 152.589844 78.863281 C 153.058594 78.550781 153.539062 78.265625 154.035156 78.003906 C 154.53125 77.738281 155.039062 77.5 155.558594 77.289062 C 156.082031 77.074219 156.609375 76.886719 157.148438 76.726562 C 157.6875 76.566406 158.230469 76.433594 158.78125 76.324219 C 159.332031 76.21875 159.890625 76.136719 160.449219 76.085938 C 161.007812 76.03125 161.566406 76.007812 162.128906 76.007812 L 193.882812 76.132812 C 194.257812 76.132812 194.625 76.167969 194.992188 76.242188 C 195.355469 76.316406 195.710938 76.425781 196.054688 76.566406 C 196.398438 76.710938 196.726562 76.886719 197.035156 77.09375 C 197.347656 77.300781 197.632812 77.539062 197.894531 77.800781 C 198.160156 78.066406 198.394531 78.355469 198.601562 78.664062 C 198.804688 78.976562 198.980469 79.300781 199.121094 79.648438 C 199.265625 79.992188 199.371094 80.347656 199.445312 80.714844 C 199.515625 81.078125 199.550781 81.449219 199.550781 81.820312 C 199.550781 82.195312 199.511719 82.5625 199.4375 82.929688 C 199.367188 83.292969 199.257812 83.648438 199.113281 83.992188 C 198.96875 84.335938 198.796875 84.664062 198.585938 84.972656 C 198.378906 85.28125 198.144531 85.570312 197.878906 85.832031 C 197.617188 86.09375 197.328125 86.332031 197.019531 86.535156 C 196.707031 86.742188 196.378906 86.917969 196.035156 87.058594 C 195.691406 87.203125 195.335938 87.308594 194.96875 87.378906 C 194.601562 87.453125 194.234375 87.488281 193.859375 87.488281 L 193.839844 87.488281 L 162.085938 87.363281 L 162.0625 87.363281 C 161.683594 87.363281 161.304688 87.398438 160.933594 87.472656 C 160.558594 87.546875 160.195312 87.65625 159.84375 87.800781 C 159.492188 87.945312 159.15625 88.125 158.839844 88.335938 C 158.523438 88.546875 158.230469 88.785156 157.960938 89.054688 C 157.691406 89.324219 157.449219 89.617188 157.238281 89.933594 C 157.023438 90.246094 156.847656 90.582031 156.699219 90.933594 C 156.554688 91.285156 156.441406 91.648438 156.367188 92.019531 C 156.292969 92.394531 156.253906 92.769531 156.253906 93.152344 C 156.253906 93.53125 156.289062 93.910156 156.363281 94.28125 C 156.4375 94.65625 156.546875 95.019531 156.691406 95.371094 C 156.835938 95.722656 157.015625 96.058594 157.226562 96.375 C 157.4375 96.691406 157.675781 96.984375 157.945312 97.253906 C 158.214844 97.523438 158.503906 97.765625 158.820312 97.976562 C 159.136719 98.1875 159.472656 98.367188 159.824219 98.515625 C 160.175781 98.660156 160.535156 98.773438 160.910156 98.847656 C 161.28125 98.921875 161.660156 98.960938 162.039062 98.960938 L 182.292969 99.039062 C 182.855469 99.042969 183.414062 99.074219 183.972656 99.128906 C 184.53125 99.1875 185.085938 99.273438 185.636719 99.386719 C 186.1875 99.496094 186.730469 99.636719 187.265625 99.800781 C 187.804688 99.964844 188.328125 100.15625 188.847656 100.375 C 189.367188 100.59375 189.871094 100.832031 190.367188 101.101562 C 190.859375 101.367188 191.339844 101.65625 191.804688 101.972656 C 192.269531 102.285156 192.71875 102.621094 193.152344 102.976562 C 193.585938 103.335938 194 103.714844 194.394531 104.113281 C 194.789062 104.511719 195.164062 104.925781 195.519531 105.363281 C 195.875 105.796875 196.207031 106.25 196.519531 106.71875 C 196.828125 107.183594 197.113281 107.667969 197.378906 108.164062 C 197.640625 108.660156 197.878906 109.164062 198.09375 109.683594 C 198.304688 110.203125 198.492188 110.734375 198.65625 111.269531 C 198.816406 111.808594 198.953125 112.351562 199.058594 112.902344 C 199.167969 113.453125 199.25 114.007812 199.304688 114.566406 C 199.355469 115.125 199.382812 115.6875 199.382812 116.25 L 199.382812 116.285156 C 199.378906 116.84375 199.347656 117.402344 199.289062 117.960938 C 199.234375 118.519531 199.148438 119.070312 199.035156 119.621094 C 198.925781 120.167969 198.785156 120.710938 198.621094 121.246094 C 198.457031 121.78125 198.265625 122.308594 198.050781 122.824219 C 197.832031 123.339844 197.59375 123.84375 197.328125 124.339844 C 197.0625 124.832031 196.769531 125.308594 196.457031 125.773438 C 196.144531 126.238281 195.8125 126.6875 195.457031 127.121094 C 195.097656 127.550781 194.722656 127.964844 194.324219 128.359375 C 193.929688 128.753906 193.511719 129.128906 193.078125 129.484375 C 192.644531 129.839844 192.195312 130.171875 191.730469 130.484375 C 191.265625 130.792969 190.785156 131.082031 190.289062 131.34375 C 189.796875 131.609375 189.289062 131.847656 188.773438 132.0625 C 188.253906 132.273438 187.730469 132.464844 187.191406 132.625 C 186.65625 132.789062 186.113281 132.925781 185.566406 133.035156 C 185.015625 133.144531 184.460938 133.226562 183.90625 133.28125 C 183.347656 133.335938 182.789062 133.363281 182.230469 133.367188 Z M 182.230469 133.367188 " fill-opacity="1" fill-rule="nonzero"/><path fill="#00a8a8" d="M 172.25 87.40625 L 172.226562 87.40625 C 171.855469 87.40625 171.484375 87.367188 171.121094 87.292969 C 170.753906 87.21875 170.398438 87.109375 170.054688 86.96875 C 169.710938 86.824219 169.386719 86.644531 169.074219 86.4375 C 168.765625 86.230469 168.480469 85.992188 168.21875 85.726562 C 167.957031 85.464844 167.722656 85.175781 167.515625 84.863281 C 167.308594 84.554688 167.136719 84.226562 166.996094 83.878906 C 166.851562 83.535156 166.746094 83.179688 166.675781 82.8125 C 166.605469 82.445312 166.570312 82.078125 166.570312 81.703125 L 166.625 68.09375 C 166.625 67.722656 166.664062 67.351562 166.738281 66.988281 C 166.808594 66.625 166.917969 66.269531 167.0625 65.925781 C 167.207031 65.582031 167.378906 65.257812 167.589844 64.949219 C 167.796875 64.640625 168.03125 64.355469 168.292969 64.089844 C 168.558594 63.828125 168.84375 63.59375 169.152344 63.386719 C 169.464844 63.183594 169.789062 63.007812 170.132812 62.867188 C 170.476562 62.722656 170.832031 62.617188 171.195312 62.542969 C 171.5625 62.472656 171.929688 62.4375 172.300781 62.4375 L 172.324219 62.4375 C 172.699219 62.4375 173.066406 62.476562 173.433594 62.550781 C 173.796875 62.625 174.152344 62.734375 174.496094 62.875 C 174.839844 63.019531 175.167969 63.195312 175.476562 63.40625 C 175.785156 63.613281 176.070312 63.851562 176.332031 64.113281 C 176.597656 64.378906 176.828125 64.667969 177.035156 64.976562 C 177.242188 65.289062 177.414062 65.617188 177.558594 65.960938 C 177.699219 66.308594 177.804688 66.664062 177.875 67.027344 C 177.945312 67.394531 177.980469 67.765625 177.980469 68.136719 L 177.929688 81.746094 C 177.925781 82.121094 177.890625 82.488281 177.816406 82.851562 C 177.742188 83.21875 177.632812 83.570312 177.492188 83.914062 C 177.347656 84.257812 177.171875 84.585938 176.964844 84.894531 C 176.757812 85.203125 176.523438 85.488281 176.257812 85.75 C 175.996094 86.015625 175.707031 86.25 175.398438 86.453125 C 175.089844 86.660156 174.761719 86.835938 174.417969 86.976562 C 174.074219 87.121094 173.722656 87.226562 173.355469 87.300781 C 172.992188 87.371094 172.621094 87.40625 172.25 87.40625 Z M 172.25 87.40625 " fill-opacity="1" fill-rule="nonzero"/><path fill="#00a8a8" d="M 172.003906 150.046875 L 171.984375 150.046875 C 171.609375 150.046875 171.242188 150.007812 170.875 149.933594 C 170.511719 149.859375 170.15625 149.75 169.8125 149.609375 C 169.46875 149.464844 169.140625 149.289062 168.832031 149.078125 C 168.523438 148.871094 168.238281 148.636719 167.976562 148.371094 C 167.710938 148.105469 167.476562 147.820312 167.273438 147.507812 C 167.066406 147.199219 166.890625 146.871094 166.75 146.523438 C 166.609375 146.179688 166.503906 145.824219 166.429688 145.460938 C 166.359375 145.09375 166.324219 144.722656 166.324219 144.351562 L 166.371094 132.671875 C 166.371094 132.300781 166.410156 131.929688 166.484375 131.566406 C 166.558594 131.203125 166.667969 130.847656 166.808594 130.503906 C 166.953125 130.160156 167.128906 129.835938 167.335938 129.527344 C 167.542969 129.21875 167.777344 128.933594 168.042969 128.671875 C 168.304688 128.40625 168.59375 128.175781 168.902344 127.96875 C 169.210938 127.761719 169.539062 127.585938 169.882812 127.445312 C 170.226562 127.304688 170.578125 127.195312 170.945312 127.125 C 171.308594 127.050781 171.675781 127.015625 172.050781 127.015625 L 172.070312 127.015625 C 172.445312 127.015625 172.8125 127.054688 173.179688 127.128906 C 173.542969 127.203125 173.898438 127.3125 174.242188 127.457031 C 174.585938 127.601562 174.914062 127.777344 175.222656 127.984375 C 175.53125 128.191406 175.816406 128.429688 176.078125 128.695312 C 176.34375 128.957031 176.578125 129.246094 176.78125 129.558594 C 176.988281 129.867188 177.160156 130.195312 177.304688 130.539062 C 177.445312 130.886719 177.550781 131.242188 177.621094 131.605469 C 177.695312 131.972656 177.726562 132.34375 177.726562 132.714844 L 177.683594 144.394531 C 177.679688 144.765625 177.640625 145.136719 177.566406 145.5 C 177.496094 145.863281 177.386719 146.21875 177.242188 146.558594 C 177.097656 146.902344 176.921875 147.230469 176.714844 147.539062 C 176.507812 147.84375 176.273438 148.132812 176.011719 148.394531 C 175.746094 148.65625 175.460938 148.890625 175.152344 149.09375 C 174.839844 149.300781 174.515625 149.476562 174.171875 149.617188 C 173.828125 149.757812 173.472656 149.867188 173.109375 149.9375 C 172.746094 150.011719 172.375 150.046875 172.003906 150.046875 Z M 172.003906 150.046875 " fill-opacity="1" fill-rule="nonzero"/><g clip-path="url(#874d81dfaa)"><path fill="#00a8a8" d="M 117.808594 152.140625 L 133.722656 152.140625 C 132.457031 151.058594 131.234375 149.921875 130.046875 148.730469 C 129.003906 147.683594 128.003906 146.597656 127.039062 145.472656 C 126.078125 144.351562 125.160156 143.191406 124.285156 142.003906 C 123.40625 140.8125 122.574219 139.589844 121.789062 138.339844 C 121 137.085938 120.261719 135.808594 119.570312 134.5 C 118.875 133.195312 118.234375 131.863281 117.636719 130.511719 C 117.042969 129.15625 116.5 127.785156 116.003906 126.390625 C 115.511719 124.996094 115.070312 123.585938 114.679688 122.160156 C 114.289062 120.734375 113.953125 119.296875 113.667969 117.84375 C 113.382812 116.394531 113.152344 114.933594 112.976562 113.464844 C 112.796875 112 112.675781 110.527344 112.605469 109.046875 C 112.539062 107.570312 112.523438 106.09375 112.5625 104.617188 C 112.601562 103.136719 112.695312 101.664062 112.84375 100.191406 C 112.992188 98.722656 113.195312 97.257812 113.453125 95.800781 C 113.707031 94.34375 114.015625 92.898438 114.378906 91.464844 C 114.742188 90.03125 115.15625 88.613281 115.621094 87.210938 C 116.089844 85.808594 116.605469 84.425781 117.175781 83.058594 C 117.742188 81.695312 118.363281 80.351562 119.027344 79.03125 C 119.695312 77.714844 120.410156 76.421875 121.171875 75.152344 C 121.933594 73.886719 122.742188 72.648438 123.59375 71.441406 C 124.449219 70.234375 125.34375 69.058594 126.285156 67.917969 C 127.222656 66.777344 128.203125 65.667969 129.226562 64.601562 C 130.246094 63.53125 131.304688 62.5 132.402344 61.507812 C 133.5 60.515625 134.628906 59.566406 135.796875 58.65625 C 136.964844 57.75 138.160156 56.886719 139.390625 56.066406 C 140.621094 55.246094 141.878906 54.46875 143.167969 53.742188 C 144.453125 53.015625 145.765625 52.335938 147.105469 51.703125 C 148.441406 51.074219 149.800781 50.492188 151.179688 49.960938 C 152.558594 49.429688 153.957031 48.949219 155.371094 48.519531 C 156.785156 48.089844 158.214844 47.714844 159.660156 47.390625 C 161.101562 47.066406 162.554688 46.796875 164.015625 46.582031 C 165.480469 46.363281 166.949219 46.203125 168.421875 46.09375 C 169.898438 45.984375 171.375 45.929688 172.851562 45.929688 L 173.09375 45.929688 C 174.574219 45.9375 176.050781 45.996094 177.527344 46.109375 C 179.003906 46.226562 180.476562 46.394531 181.9375 46.617188 C 183.402344 46.839844 184.855469 47.117188 186.300781 47.445312 C 187.746094 47.777344 189.175781 48.160156 190.589844 48.59375 C 192.003906 49.03125 193.402344 49.519531 194.78125 50.054688 C 196.164062 50.59375 197.519531 51.183594 198.855469 51.820312 C 200.191406 52.460938 201.503906 53.144531 202.789062 53.882812 C 204.074219 54.617188 205.332031 55.398438 206.558594 56.226562 C 207.789062 57.050781 208.984375 57.925781 210.148438 58.839844 C 211.3125 59.753906 212.441406 60.710938 213.535156 61.710938 C 214.628906 62.710938 215.683594 63.75 216.699219 64.824219 C 217.71875 65.902344 218.695312 67.011719 219.628906 68.160156 C 220.5625 69.308594 221.457031 70.492188 222.304688 71.707031 C 223.152344 72.921875 223.953125 74.164062 224.710938 75.4375 C 225.464844 76.710938 226.175781 78.007812 226.835938 79.335938 C 227.496094 80.660156 228.109375 82.007812 228.667969 83.378906 C 229.230469 84.75 229.742188 86.136719 230.199219 87.546875 C 230.660156 88.953125 231.066406 90.378906 231.421875 91.816406 C 231.773438 93.253906 232.074219 94.703125 232.324219 96.164062 C 232.570312 97.621094 232.765625 99.089844 232.902344 100.5625 C 233.042969 102.039062 233.128906 103.515625 233.160156 104.996094 C 233.1875 106.476562 233.164062 107.957031 233.085938 109.4375 C 233.007812 110.914062 232.875 112.390625 232.6875 113.859375 C 232.503906 115.328125 232.261719 116.789062 231.96875 118.238281 C 231.671875 119.691406 231.324219 121.128906 230.925781 122.554688 C 230.523438 123.980469 230.070312 125.390625 229.566406 126.78125 C 229.0625 128.175781 228.507812 129.546875 227.902344 130.898438 C 227.296875 132.25 226.644531 133.578125 225.941406 134.878906 C 225.238281 136.183594 224.488281 137.460938 223.691406 138.707031 C 222.894531 139.957031 222.050781 141.171875 221.164062 142.359375 C 220.277344 143.546875 219.347656 144.699219 218.375 145.816406 C 217.40625 146.933594 216.394531 148.011719 215.34375 149.054688 C 214.261719 150.128906 213.148438 151.15625 212 152.140625 L 227.914062 152.140625 C 228.996094 150.839844 230.03125 149.507812 231.019531 148.136719 C 232.007812 146.765625 232.949219 145.363281 233.835938 143.925781 C 234.726562 142.488281 235.5625 141.023438 236.347656 139.527344 C 237.136719 138.03125 237.867188 136.507812 238.542969 134.960938 C 239.222656 133.410156 239.84375 131.839844 240.410156 130.25 C 240.976562 128.65625 241.488281 127.046875 241.941406 125.417969 C 242.394531 123.792969 242.789062 122.148438 243.125 120.492188 C 243.460938 118.835938 243.738281 117.171875 243.957031 115.496094 C 244.175781 113.820312 244.335938 112.140625 244.433594 110.453125 C 244.535156 108.765625 244.574219 107.078125 244.554688 105.386719 C 244.535156 103.699219 244.457031 102.011719 244.316406 100.328125 C 244.175781 98.640625 243.980469 96.964844 243.722656 95.296875 C 243.464844 93.625 243.148438 91.964844 242.773438 90.320312 C 242.398438 88.671875 241.964844 87.039062 241.472656 85.421875 C 240.984375 83.804688 240.433594 82.207031 239.832031 80.628906 C 239.226562 79.050781 238.570312 77.496094 237.855469 75.964844 C 237.140625 74.429688 236.375 72.925781 235.554688 71.449219 C 234.734375 69.972656 233.863281 68.523438 232.941406 67.109375 C 232.019531 65.695312 231.046875 64.3125 230.027344 62.964844 C 229.007812 61.617188 227.941406 60.308594 226.828125 59.035156 C 225.714844 57.765625 224.558594 56.535156 223.359375 55.34375 C 222.15625 54.15625 220.917969 53.007812 219.636719 51.90625 C 218.355469 50.804688 217.035156 49.75 215.679688 48.742188 C 214.324219 47.730469 212.933594 46.773438 211.511719 45.863281 C 210.089844 44.953125 208.632812 44.09375 207.148438 43.285156 C 205.664062 42.476562 204.152344 41.722656 202.617188 41.023438 C 201.078125 40.324219 199.519531 39.675781 197.933594 39.085938 C 196.351562 38.496094 194.75 37.964844 193.128906 37.488281 C 191.507812 37.007812 189.871094 36.589844 188.21875 36.230469 C 186.570312 35.867188 184.90625 35.566406 183.234375 35.324219 C 181.5625 35.078125 179.882812 34.894531 178.199219 34.769531 C 176.511719 34.644531 174.824219 34.582031 173.136719 34.574219 L 172.847656 34.574219 C 171.15625 34.574219 169.464844 34.632812 167.777344 34.75 C 166.089844 34.871094 164.40625 35.046875 162.730469 35.285156 C 161.054688 35.523438 159.390625 35.820312 157.734375 36.175781 C 156.078125 36.53125 154.4375 36.945312 152.8125 37.417969 C 151.1875 37.890625 149.582031 38.421875 147.992188 39.007812 C 146.40625 39.59375 144.839844 40.234375 143.296875 40.929688 C 141.753906 41.628906 140.238281 42.378906 138.75 43.183594 C 137.261719 43.988281 135.800781 44.84375 134.371094 45.75 C 132.945312 46.660156 131.546875 47.617188 130.1875 48.625 C 128.828125 49.628906 127.503906 50.683594 126.21875 51.785156 C 124.929688 52.886719 123.6875 54.03125 122.480469 55.21875 C 121.277344 56.40625 120.113281 57.636719 118.996094 58.910156 C 117.878906 60.179688 116.808594 61.488281 115.78125 62.835938 C 114.757812 64.183594 113.78125 65.566406 112.855469 66.980469 C 111.925781 68.398438 111.050781 69.84375 110.226562 71.324219 C 109.402344 72.800781 108.632812 74.308594 107.914062 75.839844 C 107.195312 77.375 106.535156 78.929688 105.925781 80.511719 C 105.320312 82.089844 104.769531 83.691406 104.273438 85.308594 C 103.78125 86.925781 103.34375 88.5625 102.964844 90.210938 C 102.585938 91.863281 102.269531 93.523438 102.007812 95.195312 C 101.746094 96.867188 101.546875 98.546875 101.40625 100.234375 C 101.265625 101.921875 101.183594 103.613281 101.160156 105.304688 C 101.140625 106.996094 101.179688 108.6875 101.277344 110.378906 C 101.375 112.066406 101.53125 113.75 101.75 115.429688 C 101.96875 117.109375 102.246094 118.777344 102.582031 120.4375 C 102.917969 122.097656 103.3125 123.742188 103.761719 125.371094 C 104.214844 127.003906 104.726562 128.617188 105.292969 130.210938 C 105.859375 131.804688 106.480469 133.378906 107.160156 134.929688 C 107.839844 136.480469 108.570312 138.003906 109.359375 139.503906 C 110.144531 141.003906 110.984375 142.472656 111.875 143.914062 C 112.765625 145.351562 113.703125 146.757812 114.695312 148.128906 C 115.6875 149.503906 116.722656 150.839844 117.808594 152.140625 Z M 117.808594 152.140625 " fill-opacity="1" fill-rule="nonzero"/></g><g clip-path="url(#fc95dfa04f)"><path fill="#00a8a8" d="M 243.324219 284.726562 C 218.875 284.726562 198.988281 264.835938 198.988281 240.390625 C 198.988281 215.945312 218.875 196.058594 243.324219 196.058594 L 320.945312 196.058594 L 320.945312 170.988281 C 320.945312 157.464844 309.941406 146.460938 296.414062 146.460938 L 63.691406 146.460938 C 62.71875 146.457031 61.753906 146.363281 60.800781 146.171875 C 59.84375 145.980469 58.917969 145.699219 58.019531 145.324219 C 57.121094 144.953125 56.265625 144.496094 55.457031 143.953125 C 54.644531 143.414062 53.898438 142.796875 53.207031 142.109375 C 52.519531 141.421875 51.90625 140.671875 51.363281 139.863281 C 50.824219 139.054688 50.367188 138.199219 49.992188 137.300781 C 49.621094 136.402344 49.339844 135.472656 49.148438 134.519531 C 48.957031 133.5625 48.859375 132.601562 48.859375 131.625 C 48.859375 131.253906 48.824219 130.882812 48.75 130.519531 C 48.675781 130.152344 48.570312 129.796875 48.425781 129.453125 C 48.285156 129.109375 48.109375 128.78125 47.902344 128.472656 C 47.695312 128.160156 47.460938 127.875 47.195312 127.609375 C 46.933594 127.347656 46.644531 127.113281 46.335938 126.90625 C 46.027344 126.699219 45.699219 126.523438 45.355469 126.378906 C 45.011719 126.238281 44.65625 126.128906 44.289062 126.058594 C 43.921875 125.984375 43.554688 125.949219 43.179688 125.949219 C 42.808594 125.949219 42.4375 125.984375 42.074219 126.058594 C 41.707031 126.128906 41.351562 126.238281 41.007812 126.378906 C 40.664062 126.523438 40.335938 126.699219 40.027344 126.90625 C 39.714844 127.113281 39.429688 127.347656 39.167969 127.609375 C 38.902344 127.875 38.667969 128.160156 38.460938 128.472656 C 38.253906 128.78125 38.078125 129.109375 37.933594 129.453125 C 37.792969 129.796875 37.683594 130.152344 37.613281 130.519531 C 37.539062 130.882812 37.503906 131.253906 37.503906 131.625 L 37.503906 315.90625 C 37.503906 329.433594 48.507812 340.4375 62.03125 340.4375 L 296.414062 340.4375 C 309.941406 340.4375 320.945312 329.433594 320.945312 315.90625 L 320.945312 284.726562 Z M 243.324219 284.726562 " fill-opacity="1" fill-rule="nonzero"/></g><g clip-path="url(#732fbdbef0)"><path fill="#00a8a8" d="M 331.820312 273.367188 L 243.324219 273.367188 C 225.136719 273.367188 210.34375 258.578125 210.34375 240.390625 C 210.34375 222.207031 225.136719 207.414062 243.324219 207.414062 L 331.820312 207.414062 C 332.191406 207.414062 332.5625 207.449219 332.925781 207.523438 C 333.292969 207.597656 333.648438 207.703125 333.992188 207.847656 C 334.335938 207.988281 334.664062 208.164062 334.972656 208.371094 C 335.28125 208.578125 335.570312 208.8125 335.832031 209.078125 C 336.097656 209.339844 336.332031 209.628906 336.539062 209.9375 C 336.746094 210.25 336.921875 210.574219 337.066406 210.917969 C 337.207031 211.265625 337.316406 211.621094 337.386719 211.984375 C 337.460938 212.351562 337.496094 212.71875 337.496094 213.09375 L 337.496094 267.691406 C 337.496094 268.0625 337.460938 268.433594 337.386719 268.796875 C 337.316406 269.164062 337.207031 269.519531 337.066406 269.863281 C 336.921875 270.207031 336.746094 270.535156 336.539062 270.84375 C 336.332031 271.15625 336.097656 271.441406 335.832031 271.707031 C 335.570312 271.96875 335.28125 272.203125 334.972656 272.410156 C 334.664062 272.617188 334.335938 272.792969 333.992188 272.9375 C 333.648438 273.078125 333.292969 273.1875 332.925781 273.257812 C 332.5625 273.332031 332.191406 273.367188 331.820312 273.367188 Z M 243.324219 218.769531 C 231.398438 218.769531 221.703125 228.472656 221.703125 240.390625 C 221.703125 252.3125 231.398438 262.011719 243.324219 262.011719 L 326.140625 262.011719 L 326.140625 218.769531 Z M 243.324219 218.769531 " fill-opacity="1" fill-rule="nonzero"/></g><path fill="#00a8a8" d="M 257.046875 240.390625 C 257.046875 241.054688 256.980469 241.710938 256.851562 242.359375 C 256.722656 243.007812 256.53125 243.640625 256.277344 244.25 C 256.023438 244.863281 255.714844 245.445312 255.347656 245.996094 C 254.976562 246.546875 254.558594 247.054688 254.089844 247.523438 C 253.625 247.992188 253.113281 248.410156 252.5625 248.777344 C 252.011719 249.144531 251.429688 249.457031 250.820312 249.710938 C 250.207031 249.964844 249.578125 250.15625 248.925781 250.285156 C 248.277344 250.414062 247.621094 250.476562 246.960938 250.476562 C 246.296875 250.476562 245.640625 250.414062 244.992188 250.285156 C 244.34375 250.15625 243.710938 249.964844 243.101562 249.710938 C 242.488281 249.457031 241.90625 249.144531 241.355469 248.777344 C 240.804688 248.410156 240.296875 247.992188 239.828125 247.523438 C 239.359375 247.054688 238.941406 246.546875 238.574219 245.996094 C 238.207031 245.445312 237.894531 244.863281 237.640625 244.25 C 237.386719 243.640625 237.195312 243.007812 237.066406 242.359375 C 236.9375 241.710938 236.875 241.054688 236.875 240.390625 C 236.875 239.730469 236.9375 239.074219 237.066406 238.425781 C 237.195312 237.773438 237.386719 237.144531 237.640625 236.53125 C 237.894531 235.921875 238.207031 235.339844 238.574219 234.789062 C 238.941406 234.238281 239.359375 233.726562 239.828125 233.257812 C 240.296875 232.792969 240.804688 232.375 241.355469 232.003906 C 241.90625 231.636719 242.488281 231.328125 243.101562 231.074219 C 243.710938 230.820312 244.34375 230.628906 244.992188 230.5 C 245.640625 230.371094 246.296875 230.304688 246.960938 230.304688 C 247.621094 230.304688 248.277344 230.371094 248.925781 230.5 C 249.578125 230.628906 250.207031 230.820312 250.820312 231.074219 C 251.429688 231.328125 252.011719 231.636719 252.5625 232.003906 C 253.113281 232.375 253.625 232.792969 254.089844 233.257812 C 254.558594 233.726562 254.976562 234.238281 255.347656 234.789062 C 255.714844 235.339844 256.023438 235.921875 256.277344 236.53125 C 256.53125 237.144531 256.722656 237.773438 256.851562 238.425781 C 256.980469 239.074219 257.046875 239.730469 257.046875 240.390625 Z M 257.046875 240.390625 " fill-opacity="1" fill-rule="nonzero"/></svg>